<?xml version="1.0" standalone="no"?><!-- Generator: Gravit.io --><svg xmlns="http://www.w3.org/2000/svg" xmlns:xlink="http://www.w3.org/1999/xlink" style="isolation:isolate" viewBox="0 0 500 500" width="500px" height="500px"><defs><clipPath id="_clipPath_GrMWqhrkppZg10kr6vEIJkOkJVNA6Guh"><rect width="500" height="500"/></clipPath></defs><g clip-path="url(#_clipPath_GrMWqhrkppZg10kr6vEIJkOkJVNA6Guh)"><path d=" M 263.54 79.796 C 355.655 79.796 430.442 154.584 430.442 246.699 C 430.442 338.813 355.655 413.601 263.54 413.601 C 171.425 413.601 96.637 338.813 96.637 246.699 C 96.637 154.584 171.425 79.796 263.54 79.796 Z  M 263.54 93.341 C 347.078 93.341 414.905 162.06 414.905 246.699 C 414.905 331.343 347.078 400.056 263.54 400.062 C 180.001 400.062 112.174 331.343 112.174 246.699 C 112.174 162.06 180.001 93.341 263.54 93.341 Z  M 263.54 103.487 C 342.579 103.487 406.751 167.66 406.751 246.699 C 406.751 325.738 342.579 389.91 263.54 389.91 C 184.501 389.91 120.328 325.738 120.328 246.699 C 120.328 167.66 184.501 103.487 263.54 103.487 Z " fill-rule="evenodd" fill="rgb(127,221,212)"/><g><rect x="162.405" y="230.419" width="202.27" height="39.163" transform="matrix(-0.707,-0.707,0.707,-0.707,273.114,613.127)" fill="rgb(0,150,136)"/><rect x="173.811" y="242.465" width="182.62" height="16.196" transform="matrix(-0.707,-0.707,0.707,-0.707,275.415,615.206)" fill="rgb(194,230,227)"/></g><g><rect x="162.405" y="230.419" width="202.27" height="39.163" transform="matrix(-0.707,0.707,-0.707,-0.707,626.667,240.426)" fill="rgb(0,150,136)"/><rect x="170.648" y="242.465" width="182.62" height="16.196" transform="matrix(-0.707,0.707,-0.707,-0.707,624.366,242.505)" fill="rgb(194,230,227)"/></g></g></svg>