<?xml version="1.0" standalone="no"?><!-- Generator: Gravit.io --><svg xmlns="http://www.w3.org/2000/svg" xmlns:xlink="http://www.w3.org/1999/xlink" style="isolation:isolate" viewBox="788 307.825 309 332.175" width="309" height="332.175"><defs><clipPath id="_clipPath_wmhpK0VWkdy9Ax08KAoM3FUpw3pjO29V"><rect x="788" y="307.825" width="309" height="332.175"/></clipPath></defs><g clip-path="url(#_clipPath_wmhpK0VWkdy9Ax08KAoM3FUpw3pjO29V)"><path d=" M 854.42 307.825 C 817.842 307.825 788 337.667 788 374.245 L 788 573.58 C 788 610.158 817.842 640 854.42 640 L 1030.58 640 C 1067.158 640 1097 610.158 1097 573.58 L 1097 374.245 C 1097 337.667 1067.158 307.825 1030.58 307.825 L 854.42 307.825 Z  M 854.42 323.275 L 1030.58 323.275 C 1044.108 323.242 1057.092 328.601 1066.658 338.167 C 1076.224 347.733 1081.583 360.717 1081.55 374.245 L 1081.55 519.505 C 1081.583 533.033 1076.224 546.017 1066.658 555.583 C 1057.092 565.149 1044.108 570.508 1030.58 570.475 L 854.42 570.475 C 840.892 570.508 827.908 565.149 818.342 555.583 C 808.776 546.017 803.417 533.033 803.45 519.505 L 803.45 374.245 C 803.417 360.717 808.776 347.733 818.342 338.167 C 827.908 328.601 840.892 323.242 854.42 323.275 L 854.42 323.275 Z  M 803.45 561.993 C 816.042 577.145 834.718 585.914 854.42 585.925 L 1030.58 585.925 C 1050.282 585.914 1068.958 577.145 1081.55 561.993 L 1081.55 573.58 C 1081.583 587.108 1076.224 600.092 1066.658 609.658 C 1057.092 619.224 1044.108 624.583 1030.58 624.55 L 854.42 624.55 C 840.892 624.583 827.908 619.224 818.342 609.658 C 808.776 600.092 803.417 587.108 803.45 573.58 L 803.45 561.993 Z " fill="rgb(0,0,0)"/><path d=" M 1027.185 441.169 C 1029.283 442.363 1030.58 444.593 1030.58 447.007 C 1030.58 449.417 1029.283 451.65 1027.185 452.844 C 999.361 468.695 922.653 512.405 895.066 528.121 C 892.986 529.305 890.434 529.291 888.364 528.093 C 886.294 526.887 885.021 524.676 885.021 522.28 C 885.021 490.709 885.021 403.293 885.021 371.723 C 885.021 369.33 886.297 367.115 888.364 365.91 C 890.434 364.705 892.986 364.698 895.066 365.882 C 922.653 381.601 999.365 425.308 1027.185 441.165 L 1027.185 441.169 Z " fill-rule="evenodd" fill="rgb(111,153,251)" vector-effect="non-scaling-stroke" stroke-width="12" stroke="rgb(0,0,0)" stroke-linejoin="round" stroke-linecap="butt" stroke-miterlimit="1.414"/></g></svg>