<?xml version="1.0" standalone="no"?><!-- Generator: Gravit.io --><svg xmlns="http://www.w3.org/2000/svg" xmlns:xlink="http://www.w3.org/1999/xlink" style="isolation:isolate" viewBox="0 0 500 500" width="500" height="500"><defs><clipPath id="_clipPath_bX3T6e9rsivSScd0FPiCH9KMBRiMf2Y9"><rect width="500" height="500"/></clipPath></defs><g clip-path="url(#_clipPath_bX3T6e9rsivSScd0FPiCH9KMBRiMf2Y9)"><clipPath id="_clipPath_FXCiOcGP8pd0yJD61xaWERl5L8spBeJR"><rect x="0" y="0" width="500" height="500" transform="matrix(1,0,0,1,0,0)" fill="rgb(255,255,255)"/></clipPath><g clip-path="url(#_clipPath_FXCiOcGP8pd0yJD61xaWERl5L8spBeJR)"><g><path d=" M 263.54 79.796 C 355.655 79.796 430.442 154.584 430.442 246.699 C 430.442 338.813 355.655 413.601 263.54 413.601 C 171.425 413.601 96.637 338.813 96.637 246.699 C 96.637 154.584 171.425 79.796 263.54 79.796 Z  M 263.54 93.341 C 347.078 93.341 414.905 162.06 414.905 246.699 C 414.905 331.343 347.078 400.056 263.54 400.062 C 180.001 400.062 112.174 331.343 112.174 246.699 C 112.174 162.06 180.001 93.341 263.54 93.341 Z  M 263.54 103.487 C 342.579 103.487 406.751 167.66 406.751 246.699 C 406.751 325.738 342.579 389.91 263.54 389.91 C 184.501 389.91 120.328 325.738 120.328 246.699 C 120.328 167.66 184.501 103.487 263.54 103.487 Z " fill-rule="evenodd" fill="rgb(127,221,212)"/><g><rect x="162.474" y="230.42" width="202.239" height="39.157" transform="matrix(-1,0,0,-1,527.188,499.997)" fill="rgb(0,150,136)"/><rect x="172.982" y="243.604" width="182.592" height="16.194" transform="matrix(1,0,0,1,0,0)" fill="rgb(194,230,227)"/></g></g></g></g></svg>