<?xml version="1.0" standalone="no"?><!-- Generator: Gravit.io --><svg xmlns="http://www.w3.org/2000/svg" xmlns:xlink="http://www.w3.org/1999/xlink" style="isolation:isolate" viewBox="0 0 500 500" width="500px" height="500px"><defs><clipPath id="_clipPath_RXxvHRsZrbZxgSKQbex8zhdI9OjsWc7V"><rect width="500" height="500"/></clipPath></defs><g clip-path="url(#_clipPath_RXxvHRsZrbZxgSKQbex8zhdI9OjsWc7V)"><path d=" M 263.54 79.796 C 355.655 79.796 430.442 154.584 430.442 246.699 C 430.442 338.813 355.655 413.601 263.54 413.601 C 171.425 413.601 96.637 338.813 96.637 246.699 C 96.637 154.584 171.425 79.796 263.54 79.796 Z  M 263.54 93.341 C 347.078 93.341 414.905 162.06 414.905 246.699 C 414.905 331.343 347.078 400.056 263.54 400.062 C 180.001 400.062 112.174 331.343 112.174 246.699 C 112.174 162.06 180.001 93.341 263.54 93.341 Z  M 263.54 103.487 C 342.579 103.487 406.751 167.66 406.751 246.699 C 406.751 325.738 342.579 389.91 263.54 389.91 C 184.501 389.91 120.328 325.738 120.328 246.699 C 120.328 167.66 184.501 103.487 263.54 103.487 Z " fill-rule="evenodd" fill="rgb(127,221,212)"/><g/><g><g><g><rect x="89.24" y="177.598" width="163.725" height="39.163" transform="matrix(1,0,0,1,0,0)" fill="rgb(0,150,136)"/><rect x="199.672" y="227.042" width="135.498" height="39.163" transform="matrix(0.469,0.883,-0.883,0.469,359.944,-105.196)" fill="rgb(0,150,136)"/><rect x="281.471" y="276.485" width="126" height="39.163" transform="matrix(1,0,0,1,0,0)" fill="rgb(0,150,136)"/><path d=" M 436.781 296.066 L 388.471 331.331 L 388.471 260.801 L 436.781 296.066 Z " fill-rule="evenodd" fill="rgb(0,150,136)"/></g><g><path d=" M 436.781 197.331 L 388.471 162.066 L 388.471 232.596 L 436.781 197.331 Z " fill-rule="evenodd" fill="rgb(0,150,136)"/><rect x="281.471" y="177.75" width="126" height="39.163" transform="matrix(-1,0,0,-1,688.942,394.662)" fill="rgb(0,150,136)"/><rect x="199.672" y="227.193" width="135.498" height="39.163" transform="matrix(-0.469,0.883,-0.883,-0.469,610.748,126.202)" fill="rgb(0,150,136)"/><rect x="89.24" y="276.636" width="163.725" height="39.163" transform="matrix(-1,0,0,-1,342.206,592.434)" fill="rgb(0,150,136)"/><rect x="89.24" y="276.636" width="163.725" height="39.163" transform="matrix(-1,0,0,-1,342.206,592.434)" fill="rgb(0,150,136)"/><rect x="199.672" y="227.193" width="135.498" height="39.163" transform="matrix(-0.469,0.883,-0.883,-0.469,610.748,126.202)" fill="rgb(0,150,136)"/><rect x="281.471" y="177.75" width="126" height="39.163" transform="matrix(-1,0,0,-1,688.942,394.662)" fill="rgb(0,150,136)"/><path d=" M 436.781 197.331 L 388.471 162.066 L 388.471 232.596 L 436.781 197.331 Z " fill-rule="evenodd" fill="rgb(0,150,136)"/><path d=" M 420 192.033 L 392 171.066 L 392 213 L 420 192.033 Z " fill-rule="evenodd" fill="rgb(194,230,227)"/></g></g></g><rect x="96.471" y="184" width="147.82" height="16.196" transform="matrix(1,0,0,1,0,0)" fill="rgb(194,230,227)"/><path d=" M 244.291 184 L 250 200.196 L 234 200.196 L 244.291 184 Z " fill-rule="evenodd" fill="rgb(194,230,227)"/><rect x="287.18" y="184" width="107.82" height="16.196" transform="matrix(1,0,0,1,0,0)" fill="rgb(194,230,227)"/><path d=" M 287.18 184 L 281.471 200.196 L 297.471 200.196 L 287.18 184 Z " fill-rule="evenodd" fill="rgb(194,230,227)"/><rect x="96.471" y="283" width="147.82" height="16.196" transform="matrix(-1,0,0,-1,340.761,582.196)" fill="rgb(194,230,227)"/><rect x="205.844" y="234.057" width="122.297" height="16.196" transform="matrix(-0.48,0.877,-0.877,-0.48,607.633,124.305)" fill="rgb(194,230,227)"/><path d=" M 252.714 232.873 L 230.628 192.332 L 244.85 184.584 L 261.804 215.703 L 252.714 232.873 L 252.714 232.873 Z " fill="rgb(194,230,227)"/><path d=" M 272.77 277.726 L 282.719 299.677 L 297.471 292.991 L 282.508 259.979 L 272.77 277.726 L 272.77 277.726 Z " fill="rgb(194,230,227)"/><path d=" M 244.291 299.196 L 250 283 L 234 283 L 244.291 299.196 Z " fill-rule="evenodd" fill="rgb(194,230,227)"/><rect x="283.18" y="283" width="115.82" height="16.196" transform="matrix(-1,0,0,-1,682.18,582.196)" fill="rgb(194,230,227)"/><path d=" M 283.18 299.196 L 277.471 283 L 293.471 283 L 283.18 299.196 Z " fill-rule="evenodd" fill="rgb(194,230,227)"/><path d=" M 420 291.033 L 392 270.066 L 392 312 L 420 291.033 Z " fill-rule="evenodd" fill="rgb(194,230,227)"/></g></svg>